<svg width="145" height="137" viewBox="0 0 145 137" fill="none" xmlns="http://www.w3.org/2000/svg">
<g clip-path="url(#clip0_434_851)">
<path d="M0.464936 65.8587L41.8069 134.983C42.5249 136.198 43.9472 136.806 45.3142 136.502L50.7823 135.3L78.7992 116.908L100.036 125.897C100.658 126.159 101.362 126.228 102.025 126.077L107.217 124.917L12.202 54.5911L1.51434 61.4124C0.0230417 62.379 -0.44641 64.3398 0.464936 65.8587Z" fill="url(#paint0_linear_434_851)"/>
<path d="M46.2309 132.953L5.62071 64.1326C4.39178 62.0338 5.04077 59.3412 7.09821 58.057L98.8957 0.683602C101.036 -0.655801 103.867 0.0346143 105.137 2.21632L144.809 70.084C146.024 72.1691 145.375 74.8478 143.331 76.132L114.444 94.3313C113.215 95.1046 112.442 96.4302 112.359 97.88L111.116 120.76C110.951 123.909 107.65 125.911 104.778 124.599L85.0459 115.582C83.6513 114.947 82.0081 115.071 80.7239 115.914L52.5413 134.417C50.401 135.839 47.5289 135.162 46.2309 132.953Z" fill="url(#paint1_linear_434_851)"/>
</g>
<defs>
<linearGradient id="paint0_linear_434_851" x1="0.000416924" y1="95.5906" x2="107.227" y2="95.5906" gradientUnits="userSpaceOnUse">
<stop stop-color="#A6EBFA"/>
<stop offset="0.7688" stop-color="#7AE0F7"/>
<stop offset="0.9774" stop-color="#21CCF2"/>
</linearGradient>
<linearGradient id="paint1_linear_434_851" x1="4.99147" y1="67.5815" x2="145.426" y2="67.5815" gradientUnits="userSpaceOnUse">
<stop stop-color="#4DD6F5"/>
<stop offset="1" stop-color="#1999B5"/>
</linearGradient>
<clipPath id="clip0_434_851">
<rect width="145" height="137" fill="white"/>
</clipPath>
</defs>
</svg>
