<svg width="126" height="101" viewBox="0 0 126 101" fill="none" xmlns="http://www.w3.org/2000/svg">
<path d="M103.95 88.375H22.05C20.3175 88.375 18.9 89.7953 18.9 91.5312V97.8438C18.9 99.5797 20.3175 101 22.05 101H103.95C105.683 101 107.1 99.5797 107.1 97.8438V91.5312C107.1 89.7953 105.683 88.375 103.95 88.375ZM116.55 25.25C111.333 25.25 107.1 29.4912 107.1 34.7188C107.1 36.1193 107.415 37.4213 107.966 38.6246L93.7125 47.1859C90.6806 49.0008 86.7628 47.975 85.0106 44.8977L68.9653 16.7676C71.0719 15.0316 72.45 12.4277 72.45 9.46875C72.45 4.24121 68.2172 0 63 0C57.7828 0 53.55 4.24121 53.55 9.46875C53.55 12.4277 54.9281 15.0316 57.0347 16.7676L40.9894 44.8977C39.2372 47.975 35.2997 49.0008 32.2875 47.1859L18.0534 38.6246C18.585 37.441 18.9197 36.1193 18.9197 34.7188C18.9197 29.4912 14.6869 25.25 9.46969 25.25C4.2525 25.25 0 29.4912 0 34.7188C0 39.9463 4.23281 44.1875 9.45 44.1875C9.96188 44.1875 10.4738 44.1086 10.9659 44.0297L25.2 82.0625H100.8L115.034 44.0297C115.526 44.1086 116.038 44.1875 116.55 44.1875C121.767 44.1875 126 39.9463 126 34.7188C126 29.4912 121.767 25.25 116.55 25.25Z" fill="#08D9D6"/>
</svg>
