<svg width="37" height="35" viewBox="0 0 37 35" fill="none" xmlns="http://www.w3.org/2000/svg">
<path d="M7.79302 1.3237e-05C7.74117 -0.000463899 7.69003 0.0119649 7.64418 0.0361798C7.59834 0.0603948 7.55924 0.0956351 7.53041 0.138725C7.50158 0.181815 7.48393 0.231401 7.47904 0.283015C7.47414 0.334629 7.48217 0.386649 7.50239 0.434388L7.68208 0.858607L10.8618 8.27267C10.8834 8.3231 10.9179 8.36695 10.9618 8.39981C11.0057 8.43267 11.0575 8.45339 11.112 8.45989C11.1665 8.46638 11.2217 8.45841 11.2721 8.4368C11.3226 8.41518 11.3664 8.38067 11.3993 8.33673L17.268 0.500013C17.3028 0.453585 17.324 0.398378 17.3293 0.340577C17.3345 0.282777 17.3235 0.224667 17.2975 0.172759C17.2716 0.120851 17.2317 0.0771957 17.1823 0.0466849C17.1329 0.0161741 17.0761 1.3237e-05 17.018 1.3237e-05H7.79302ZM31.0907 2.03595L27.8657 9.56486C27.8454 9.61239 27.8372 9.66421 27.8419 9.71568C27.8465 9.76715 27.8639 9.81666 27.8924 9.85978C27.9209 9.90289 27.9596 9.93827 28.0051 9.96275C28.0506 9.98722 28.1015 10 28.1532 10H36.0438C36.0995 10 36.1542 9.98517 36.2023 9.95694C36.2503 9.92871 36.2899 9.88815 36.317 9.83947C36.3441 9.79078 36.3577 9.73574 36.3563 9.68004C36.355 9.62433 36.3388 9.57 36.3094 9.52267L31.643 1.99454C31.6129 1.94608 31.57 1.90679 31.5191 1.88096C31.4682 1.85512 31.4112 1.84371 31.3543 1.84798C31.2974 1.85225 31.2427 1.87202 31.1962 1.90516C31.1498 1.9383 31.1133 1.98353 31.0907 2.03595V2.03595ZM4.92427 1.99767L0.259424 9.52267C0.230034 9.57 0.213833 9.62433 0.212499 9.68004C0.211166 9.73574 0.224749 9.79078 0.251841 9.83947C0.278933 9.88815 0.318549 9.92871 0.366586 9.95694C0.414622 9.98517 0.469332 10 0.525049 10H8.41567C8.46739 9.99995 8.51828 9.98706 8.56378 9.96249C8.60928 9.93792 8.64798 9.90244 8.6764 9.85923C8.70481 9.81603 8.72206 9.76645 8.7266 9.71493C8.73114 9.66342 8.72282 9.61158 8.70239 9.56408L5.47114 2.03908C5.44803 1.98796 5.41159 1.94401 5.36564 1.91183C5.31969 1.87965 5.26592 1.86044 5.20998 1.8562C5.15405 1.85197 5.098 1.86287 5.04773 1.88776C4.99746 1.91265 4.95481 1.95062 4.92427 1.99767V1.99767ZM29.0079 1.3237e-05H19.2071C19.1788 -0.000169695 19.151 0.00756333 19.1269 0.0223379C19.1028 0.0371124 19.0833 0.0583392 19.0706 0.0836177C19.0579 0.108896 19.0526 0.137218 19.0552 0.165381C19.0577 0.193544 19.0681 0.220424 19.0852 0.242982L25.329 8.56017C25.3449 8.58153 25.3662 8.59832 25.3907 8.60883C25.4152 8.61934 25.442 8.62321 25.4685 8.62004C25.4949 8.61687 25.5201 8.60677 25.5414 8.59078C25.5627 8.57478 25.5795 8.55344 25.5899 8.52892L28.8774 0.859388L29.143 0.207826C29.1524 0.185461 29.1562 0.161161 29.1541 0.137006C29.152 0.112851 29.1441 0.0895621 29.131 0.0691332C29.118 0.0487043 29.1002 0.0317446 29.0791 0.0197066C29.0581 0.00766866 29.0344 0.000911235 29.0102 1.3237e-05H29.0079ZM16.9555 32.5L9.9688 12.6961C9.94829 12.6386 9.91045 12.5889 9.8605 12.5537C9.81055 12.5186 9.75095 12.4999 9.68989 12.5H0.291455C0.237012 12.4999 0.183619 12.515 0.137361 12.5437C0.0911031 12.5724 0.0538405 12.6135 0.0298187 12.6624C0.00579689 12.7113 -0.00401789 12.7659 0.00149262 12.8201C0.00700313 12.8742 0.0276173 12.9257 0.0609864 12.9688L16.936 34.8289C16.9931 34.9029 17.0746 34.9542 17.166 34.9738C17.2574 34.9934 17.3528 34.98 17.4352 34.936C17.5181 34.8923 17.5826 34.8204 17.6169 34.7332C17.6511 34.646 17.6529 34.5494 17.6219 34.461L16.9555 32.5ZM36.2758 12.5H26.8774C26.8167 12.5 26.7574 12.5189 26.7079 12.554C26.6583 12.5891 26.6209 12.6388 26.6008 12.6961L18.929 34.4274C18.8967 34.5186 18.8981 34.6183 18.9327 34.7087C18.9674 34.799 19.0331 34.874 19.118 34.9203C19.203 34.9664 19.3016 34.9807 19.3962 34.9608C19.4907 34.9409 19.5752 34.8881 19.6344 34.8117L36.5063 12.9688C36.5397 12.9257 36.5603 12.8742 36.5658 12.8201C36.5713 12.7659 36.5615 12.7113 36.5375 12.6624C36.5134 12.6135 36.4762 12.5724 36.4299 12.5437C36.3837 12.515 36.3303 12.4999 36.2758 12.5V12.5ZM18.5336 3.66642L22.9086 9.50001C22.9435 9.54644 22.9647 9.60165 22.9699 9.65945C22.9751 9.71725 22.9641 9.77536 22.9382 9.82727C22.9122 9.87917 22.8723 9.92283 22.8229 9.95334C22.7736 9.98385 22.7167 10 22.6586 10H13.9086C13.8506 10 13.7937 9.98385 13.7444 9.95334C13.695 9.92283 13.6551 9.87917 13.6291 9.82727C13.6032 9.77536 13.5922 9.71725 13.5974 9.65945C13.6026 9.60165 13.6238 9.54644 13.6586 9.50001L18.0336 3.66642C18.0628 3.62761 18.1005 3.59611 18.1439 3.57441C18.1873 3.55271 18.2351 3.54142 18.2836 3.54142C18.3322 3.54142 18.38 3.55271 18.4234 3.57441C18.4668 3.59611 18.5045 3.62761 18.5336 3.66642V3.66642ZM17.9868 27.9094L12.6977 12.9164C12.6811 12.8693 12.676 12.8189 12.6829 12.7694C12.6898 12.7199 12.7084 12.6728 12.7373 12.6321C12.7661 12.5913 12.8043 12.558 12.8487 12.535C12.8931 12.512 12.9423 12.5 12.9922 12.5H23.5751C23.625 12.5 23.6742 12.512 23.7186 12.535C23.7629 12.558 23.8011 12.5913 23.83 12.6321C23.8588 12.6728 23.8775 12.7199 23.8844 12.7694C23.8913 12.8189 23.8862 12.8693 23.8696 12.9164L18.5782 27.9094C18.5566 27.9702 18.5167 28.0229 18.4639 28.0602C18.4112 28.0974 18.3482 28.1174 18.2836 28.1174C18.2191 28.1174 18.1561 28.0974 18.1033 28.0602C18.0506 28.0229 18.0107 27.9702 17.9891 27.9094H17.9868Z" fill="#08D9D6"/>
</svg>
