<svg width="157" height="126" viewBox="0 0 157 126" fill="none" xmlns="http://www.w3.org/2000/svg">
<circle cx="8" cy="8" r="8" fill="white"/>
<circle cx="8" cy="30" r="8" fill="white"/>
<circle cx="8" cy="52" r="8" fill="white"/>
<circle cx="8" cy="74" r="8" fill="white"/>
<circle cx="8" cy="96" r="8" fill="white"/>
<circle cx="8" cy="118" r="8" fill="white"/>
<circle cx="36" cy="8" r="8" fill="white"/>
<circle cx="36" cy="30" r="8" fill="white"/>
<circle cx="36" cy="52" r="8" fill="white"/>
<circle cx="36" cy="74" r="8" fill="white"/>
<circle cx="36" cy="96" r="8" fill="white"/>
<circle cx="36" cy="118" r="8" fill="white"/>
<circle cx="65" cy="8" r="8" fill="white"/>
<circle cx="65" cy="30" r="8" fill="white"/>
<circle cx="65" cy="52" r="8" fill="white"/>
<circle cx="65" cy="74" r="8" fill="white"/>
<circle cx="65" cy="96" r="8" fill="white"/>
<circle cx="65" cy="118" r="8" fill="white"/>
<circle cx="93" cy="8" r="8" fill="white"/>
<circle cx="93" cy="30" r="8" fill="white"/>
<circle cx="93" cy="52" r="8" fill="white"/>
<circle cx="93" cy="74" r="8" fill="white"/>
<circle cx="93" cy="96" r="8" fill="white"/>
<circle cx="93" cy="118" r="8" fill="white"/>
<circle cx="121" cy="8" r="8" fill="white"/>
<circle cx="121" cy="30" r="8" fill="white"/>
<circle cx="121" cy="52" r="8" fill="white"/>
<circle cx="121" cy="74" r="8" fill="white"/>
<circle cx="121" cy="96" r="8" fill="white"/>
<circle cx="121" cy="118" r="8" fill="white"/>
<circle cx="149" cy="8" r="8" fill="white"/>
<circle cx="149" cy="30" r="8" fill="white"/>
<circle cx="149" cy="52" r="8" fill="white"/>
<circle cx="149" cy="74" r="8" fill="white"/>
<circle cx="149" cy="96" r="8" fill="white"/>
<circle cx="149" cy="118" r="8" fill="white"/>
</svg>
