<svg width="160" height="60" viewBox="0 0 160 60" fill="none" xmlns="http://www.w3.org/2000/svg">
<path d="M20.2869 27.3122L14.9353 48.2913L10.5612 37.6732L1.0002 32.581L20.2869 27.3122Z" stroke="#08D9D6" stroke-width="2" stroke-linecap="round" stroke-linejoin="round"/>
<path d="M32.8983 4.86C34.3383 4.54 35.8983 4.2 37.5783 3.84C39.2983 3.48 41.0383 3.16 42.7983 2.88C44.5983 2.56 46.3383 2.3 48.0183 2.1C49.6983 1.9 51.2383 1.8 52.6383 1.8C54.3583 1.8 55.7183 2.48 56.7183 3.84C57.3183 4.6 57.4783 5.46 57.1983 6.42C56.9183 7.38 56.3183 8.06 55.3983 8.46C55.1183 8.54 54.8583 8.6 54.6183 8.64C54.3783 8.64 54.1183 8.68 53.8383 8.76L53.6583 8.04C53.6183 7.44 53.5183 7.02 53.3583 6.78C53.1983 6.54 52.8583 6.46 52.3383 6.54C51.8583 6.54 51.1583 6.62 50.2383 6.78C49.3583 6.94 48.3583 7.14 47.2383 7.38C46.1583 7.62 45.0183 7.9 43.8183 8.22C42.6183 8.54 41.4783 8.86 40.3983 9.18C39.3183 9.46 38.3383 9.74 37.4583 10.02C36.6183 10.26 35.9783 10.46 35.5383 10.62C35.6183 12.18 35.6983 13.74 35.7783 15.3C35.8983 16.86 35.9983 18.4 36.0783 19.92C36.3583 19.88 36.8383 19.82 37.5183 19.74C38.2383 19.62 38.9783 19.5 39.7383 19.38C40.5383 19.22 41.2783 19.1 41.9583 19.02C42.6783 18.9 43.1783 18.82 43.4583 18.78C43.8183 18.78 44.1983 18.78 44.5983 18.78C45.0383 18.74 45.4583 18.74 45.8583 18.78C46.2983 18.82 46.6783 18.9 46.9983 19.02C47.3583 19.14 47.6583 19.32 47.8983 19.56C48.4983 20.04 48.7183 20.7 48.5583 21.54C48.3183 22.34 47.8183 22.84 47.0583 23.04C45.2583 23.48 43.4583 23.82 41.6583 24.06C39.8583 24.3 38.0583 24.52 36.2583 24.72L35.2383 25.08L33.7383 30.78C33.0983 33.3 32.2583 35.74 31.2183 38.1C30.2183 40.46 29.0583 42.76 27.7383 45C27.5783 45.24 27.2783 45.66 26.8383 46.26C26.3983 46.86 25.8983 47.42 25.3383 47.94C24.8183 48.5 24.2783 48.94 23.7183 49.26C23.1983 49.58 22.7783 49.6 22.4583 49.32C21.8983 48.88 21.7583 48.28 22.0383 47.52C22.6783 45.8 23.2983 44.12 23.8983 42.48C24.4983 40.84 25.0383 39.18 25.5183 37.5C26.0383 35.82 26.4783 34.08 26.8383 32.28C27.2383 30.44 27.5583 28.44 27.7983 26.28H26.5983L23.7183 26.52C23.5183 26.52 23.3383 26.52 23.1783 26.52C23.0183 26.48 22.7783 26.42 22.4583 26.34C22.8983 25.78 23.3783 25.32 23.8983 24.96C24.4183 24.6 24.9383 24.28 25.4583 24C25.9783 23.72 26.4983 23.46 27.0183 23.22C27.5383 22.98 28.0383 22.68 28.5183 22.32C28.9583 20.8 29.2183 19.28 29.2983 17.76C29.3783 16.24 29.3183 14.68 29.1183 13.08C28.6783 13.16 28.2383 13.24 27.7983 13.32C27.3983 13.36 26.9983 13.38 26.5983 13.38C26.0383 13.38 25.4583 13.38 24.8583 13.38C24.2983 13.38 23.7383 13.32 23.1783 13.2C21.6583 12.88 20.5783 12.04 19.9383 10.68C19.3383 9.28 19.3383 7.74 19.9383 6.06C20.1383 5.46 20.4183 4.94 20.7783 4.5C21.1783 4.06 21.6183 3.68 22.0983 3.36C23.8583 2.16 25.6383 1.62 27.4383 1.74C29.2783 1.82 30.8383 2.56 32.1183 3.96L32.8983 4.86ZM21.9783 6.78C22.1383 7.02 22.4183 7.2 22.8183 7.32C23.2183 7.44 23.6583 7.5 24.1383 7.5C24.6183 7.5 25.0983 7.46 25.5783 7.38C26.0583 7.26 26.4583 7.1 26.7783 6.9C26.4983 6.38 26.1583 5.94 25.7583 5.58C25.3583 5.22 24.9383 5.02 24.4983 4.98C24.0583 4.9 23.6183 5 23.1783 5.28C22.7383 5.52 22.3383 6.02 21.9783 6.78ZM62.2594 37.32C61.8194 39.04 61.0994 40.56 60.0994 41.88C59.0994 43.16 57.8594 44.28 56.3794 45.24C55.4194 45.84 54.4794 46.2 53.5594 46.32C52.6394 46.44 51.6994 46.34 50.7394 46.02C47.4994 44.86 45.7594 42.56 45.5194 39.12C45.3194 36.76 45.5194 34.5 46.1194 32.34C46.7194 30.18 47.8794 28.14 49.5994 26.22C50.3994 25.34 51.2794 24.6 52.2394 24C53.1994 23.4 54.2594 23.06 55.4194 22.98C57.6194 22.46 59.2994 22.62 60.4594 23.46C61.6594 24.3 62.4794 25.48 62.9194 27C63.3594 28.52 63.4794 30.24 63.2794 32.16C63.1194 34.04 62.7794 35.76 62.2594 37.32ZM59.6794 28.26C59.5994 27.66 59.3594 27.22 58.9594 26.94C58.5994 26.62 58.1594 26.44 57.6394 26.4C57.1594 26.32 56.6594 26.4 56.1394 26.64C55.6194 26.84 55.1794 27.16 54.8194 27.6C54.2594 28.32 53.7994 29.18 53.4394 30.18C53.1194 31.14 52.8594 32.14 52.6594 33.18C52.4994 34.22 52.3994 35.26 52.3594 36.3C52.3594 37.3 52.3994 38.2 52.4794 39C52.5594 39.4 52.6994 39.78 52.8994 40.14C53.0994 40.46 53.2994 40.78 53.4994 41.1C53.7794 41.46 54.1794 41.66 54.6994 41.7C55.2194 41.74 55.6994 41.6 56.1394 41.28C57.0194 40.6 57.7194 39.7 58.2394 38.58C58.7994 37.42 59.1994 36.22 59.4394 34.98C59.7194 33.74 59.8594 32.52 59.8594 31.32C59.8994 30.12 59.8394 29.1 59.6794 28.26ZM72.2269 34.5L72.8269 33.24C73.4669 31.68 74.1669 30.2 74.9269 28.8C75.7269 27.36 76.6269 26 77.6269 24.72C77.9869 24.24 78.3469 23.82 78.7069 23.46C80.1469 22.06 81.4269 22.04 82.5469 23.4C83.3869 24.32 83.8069 25.48 83.8069 26.88C83.8869 27.56 83.9269 28.26 83.9269 28.98C83.9669 29.7 84.0269 30.46 84.1069 31.26L84.5869 30.54C85.1469 29.74 85.6869 28.92 86.2069 28.08C86.7669 27.24 87.3269 26.42 87.8869 25.62C88.6069 24.74 89.3669 24 90.1669 23.4C91.0869 22.72 91.9469 22.52 92.7469 22.8C93.5869 23.04 94.1669 23.7 94.4869 24.78C94.6469 25.26 94.7669 25.76 94.8469 26.28C94.9269 26.8 94.9469 27.34 94.9069 27.9C94.8669 29.94 94.8069 31.96 94.7269 33.96C94.6469 35.96 94.5669 37.98 94.4869 40.02C94.4469 40.46 94.4269 40.88 94.4269 41.28C94.4669 41.64 94.6669 41.94 95.0269 42.18C95.2669 42.3 95.3669 42.5 95.3269 42.78C95.3269 43.02 95.2669 43.28 95.1469 43.56C94.8269 44.2 94.4269 44.7 93.9469 45.06C93.5069 45.42 93.0469 45.64 92.5669 45.72C92.0869 45.84 91.6269 45.84 91.1869 45.72C90.7869 45.6 90.4469 45.4 90.1669 45.12C89.6869 44.56 89.2669 43.98 88.9069 43.38C88.5869 42.74 88.3869 42.02 88.3069 41.22C88.0669 39.14 88.1069 36.94 88.4269 34.62C88.5069 33.94 88.5869 33.26 88.6669 32.58C88.7869 31.9 88.9069 31.22 89.0269 30.54L89.1469 29.28C88.7469 29.68 88.5269 29.94 88.4869 30.06C87.4869 31.54 86.5869 33.06 85.7869 34.62C84.9869 36.18 84.1869 37.76 83.3869 39.36C83.2269 39.64 83.1269 39.94 83.0869 40.26C83.0469 40.54 82.9869 40.84 82.9069 41.16C82.7069 42.2 82.3269 43.06 81.7669 43.74C81.2469 44.38 80.6269 44.74 79.9069 44.82C79.1869 44.94 78.5269 44.74 77.9269 44.22C77.3669 43.7 77.0269 42.92 76.9069 41.88C76.6669 40.48 76.5469 39.08 76.5469 37.68C76.5469 36.28 76.6069 34.84 76.7269 33.36L77.0269 30.72C76.9869 30.72 76.9469 30.72 76.9069 30.72C76.9069 30.68 76.8669 30.66 76.7869 30.66C76.6669 30.86 76.5269 31.06 76.3669 31.26C76.2469 31.46 76.1469 31.66 76.0669 31.86L71.7469 41.64L71.2069 43.08C71.0069 43.72 70.7069 44.2 70.3069 44.52C69.9469 44.84 69.5069 45.08 68.9869 45.24C67.9069 45.6 67.1069 45.28 66.5869 44.28C66.2269 43.68 65.9069 43.06 65.6269 42.42C65.3869 41.74 65.2469 41 65.2069 40.2C65.1269 38.28 65.1669 36.36 65.3269 34.44C65.5269 32.52 65.9069 30.6 66.4669 28.68C66.6669 28.12 66.8669 27.6 67.0669 27.12C67.2669 26.6 67.4669 26.1 67.6669 25.62C67.8669 25.3 68.0869 24.98 68.3269 24.66C68.5669 24.34 68.8069 24.06 69.0469 23.82C69.8069 23.14 70.4869 22.94 71.0869 23.22C71.7269 23.5 72.0869 24.16 72.1669 25.2C72.2069 25.76 72.2269 26.34 72.2269 26.94C72.2269 27.5 72.2269 28.08 72.2269 28.68C72.2269 29.4 72.2069 30.14 72.1669 30.9C72.1269 31.62 72.0669 32.34 71.9869 33.06V34.44C72.0669 34.44 72.1069 34.46 72.1069 34.5C72.1469 34.5 72.1869 34.5 72.2269 34.5ZM104.558 42.96C104.518 43.28 104.378 43.7 104.138 44.22C103.938 44.74 103.618 45.18 103.178 45.54C102.778 45.94 102.298 46.16 101.738 46.2C101.178 46.24 100.538 45.92 99.818 45.24C98.818 44.08 98.298 42.66 98.258 40.98C98.178 36.34 98.858 31.8 100.298 27.36C100.418 27.04 100.538 26.74 100.658 26.46C100.818 26.14 100.978 25.82 101.138 25.5C101.458 24.74 101.878 24.22 102.398 23.94C102.918 23.66 103.518 23.48 104.198 23.4C104.798 23.32 105.198 23.62 105.398 24.3C105.518 24.78 105.578 25.28 105.578 25.8C105.618 28.32 105.558 30.84 105.398 33.36C105.278 35.84 105.058 38.36 104.738 40.92C104.698 41.2 104.678 41.5 104.678 41.82C104.678 42.14 104.638 42.52 104.558 42.96ZM104.078 19.74C102.758 19.66 101.898 19.1 101.498 18.06C101.258 17.46 101.178 16.86 101.258 16.26C101.378 15.66 101.718 15.1 102.278 14.58C102.638 14.18 102.898 13.92 103.058 13.8C103.218 13.68 103.558 13.5 104.078 13.26C104.838 12.86 105.578 12.84 106.298 13.2C107.058 13.52 107.518 14.08 107.678 14.88C107.918 15.92 107.778 16.92 107.258 17.88C106.738 18.84 105.918 19.42 104.798 19.62L104.078 19.74ZM124.427 37.32C123.987 39.04 123.267 40.56 122.267 41.88C121.267 43.16 120.027 44.28 118.547 45.24C117.587 45.84 116.647 46.2 115.727 46.32C114.807 46.44 113.867 46.34 112.907 46.02C109.667 44.86 107.927 42.56 107.687 39.12C107.487 36.76 107.687 34.5 108.287 32.34C108.887 30.18 110.047 28.14 111.767 26.22C112.567 25.34 113.447 24.6 114.407 24C115.367 23.4 116.427 23.06 117.587 22.98C119.787 22.46 121.467 22.62 122.627 23.46C123.827 24.3 124.647 25.48 125.087 27C125.527 28.52 125.647 30.24 125.447 32.16C125.287 34.04 124.947 35.76 124.427 37.32ZM121.847 28.26C121.767 27.66 121.527 27.22 121.127 26.94C120.767 26.62 120.327 26.44 119.807 26.4C119.327 26.32 118.827 26.4 118.307 26.64C117.787 26.84 117.347 27.16 116.987 27.6C116.427 28.32 115.967 29.18 115.607 30.18C115.287 31.14 115.027 32.14 114.827 33.18C114.667 34.22 114.567 35.26 114.527 36.3C114.527 37.3 114.567 38.2 114.647 39C114.727 39.4 114.867 39.78 115.067 40.14C115.267 40.46 115.467 40.78 115.667 41.1C115.947 41.46 116.347 41.66 116.867 41.7C117.387 41.74 117.867 41.6 118.307 41.28C119.187 40.6 119.887 39.7 120.407 38.58C120.967 37.42 121.367 36.22 121.607 34.98C121.887 33.74 122.027 32.52 122.027 31.32C122.067 30.12 122.007 29.1 121.847 28.26Z" fill="#08D9D6"/>
</svg>
