<svg width="36" height="31" viewBox="0 0 36 31" fill="none" xmlns="http://www.w3.org/2000/svg">
<path d="M16 21.7C16 24.0056 16.6625 26.1498 17.8063 27.9387L17.4625 28.3069C16.65 29.14 15.3438 29.14 14.5938 28.3069L2.4819 15.4031C-1.01372 11.6572 -0.826849 5.46363 3.10627 1.98128C6.47502 -1.05092 11.6563 -0.470318 14.7813 2.82022L16.025 4.17454L17.2125 2.82022C20.3375 -0.470318 25.4563 -1.05092 28.95 1.98128C31.6313 4.398 32.5438 8.11156 31.6875 11.4118C30.2688 10.7207 28.675 10.3332 27 10.3332C20.925 10.3332 16 15.4224 16 21.7ZM36 21.7C36 26.8344 31.9688 31 27 31C22.0313 31 18 26.8344 18 21.7C18 16.5656 22.0313 12.3999 27 12.3999C31.9688 12.3999 36 16.5656 36 21.7ZM29.7938 18.9035L26 22.8237L24.2063 20.9702C23.8188 20.5633 23.1813 20.5633 22.7938 20.9702C22.4 21.3706 22.4 22.0293 22.7938 22.4298L25.2938 25.0131C25.6813 25.42 26.3188 25.42 26.7063 25.0131L31.2063 20.3631C31.6 19.9627 31.6 19.3039 31.2063 18.9035C30.8188 18.4966 30.1813 18.4966 29.7938 18.9035Z" fill="#08D9D6"/>
</svg>
