<svg width="27" height="27" viewBox="0 0 27 27" fill="none" xmlns="http://www.w3.org/2000/svg">
<path d="M23.5653 9.34312C23.554 8.49107 23.3945 7.6475 23.094 6.85012C22.8334 6.17754 22.4353 5.56672 21.9253 5.05668C21.4152 4.54664 20.8044 4.1486 20.1318 3.888C19.3447 3.59252 18.5132 3.43276 17.6726 3.4155C16.5903 3.36712 16.2472 3.35362 13.5 3.35362C10.7527 3.35362 10.4006 3.35362 9.32621 3.4155C8.48601 3.43288 7.65485 3.59265 6.86808 3.888C6.1954 4.14842 5.58448 4.5464 5.07442 5.05646C4.56436 5.56652 4.16638 6.17744 3.90596 6.85012C3.60989 7.63665 3.45047 8.468 3.43458 9.30825C3.38621 10.3916 3.37158 10.7347 3.37158 13.482C3.37158 16.2292 3.37158 16.5802 3.43458 17.6557C3.45146 18.4972 3.61008 19.3275 3.90596 20.1161C4.16682 20.7886 4.56509 21.3993 5.07532 21.9091C5.58555 22.419 6.19653 22.8168 6.86921 23.0771C7.65382 23.3845 8.48513 23.5557 9.32733 23.5834C10.4107 23.6317 10.7538 23.6464 13.5011 23.6464C16.2483 23.6464 16.6005 23.6464 17.6748 23.5834C18.5154 23.5668 19.347 23.4074 20.1341 23.112C20.8065 22.8511 21.4172 22.4529 21.9272 21.9429C22.4372 21.4329 22.8353 20.8223 23.0962 20.1499C23.3921 19.3624 23.5507 18.5321 23.5676 17.6895C23.616 16.6072 23.6306 16.2641 23.6306 13.5157C23.6283 10.7685 23.6283 10.4197 23.5653 9.34312V9.34312ZM13.4932 18.6772C10.62 18.6772 8.29233 16.3496 8.29233 13.4764C8.29233 10.6031 10.62 8.2755 13.4932 8.2755C14.8726 8.2755 16.1954 8.82345 17.1708 9.7988C18.1461 10.7742 18.6941 12.097 18.6941 13.4764C18.6941 14.8557 18.1461 16.1786 17.1708 17.1539C16.1954 18.1293 14.8726 18.6772 13.4932 18.6772V18.6772ZM18.9011 9.29587C18.7418 9.29602 18.584 9.26475 18.4368 9.20386C18.2896 9.14297 18.1559 9.05364 18.0432 8.941C17.9306 8.82835 17.8412 8.6946 17.7803 8.5474C17.7195 8.40019 17.6882 8.24242 17.6883 8.08312C17.6883 7.92394 17.7197 7.76631 17.7806 7.61924C17.8415 7.47217 17.9308 7.33854 18.0434 7.22598C18.1559 7.11341 18.2896 7.02413 18.4366 6.96321C18.5837 6.90229 18.7413 6.87094 18.9005 6.87094C19.0597 6.87094 19.2173 6.90229 19.3644 6.96321C19.5115 7.02413 19.6451 7.11341 19.7577 7.22598C19.8702 7.33854 19.9595 7.47217 20.0204 7.61924C20.0814 7.76631 20.1127 7.92394 20.1127 8.08312C20.1127 8.75362 19.5705 9.29587 18.9011 9.29587Z" fill="#08D9D6"/>
<path d="M13.4931 16.8548C15.3589 16.8548 16.8715 15.3422 16.8715 13.4764C16.8715 11.6106 15.3589 10.098 13.4931 10.098C11.6273 10.098 10.1147 11.6106 10.1147 13.4764C10.1147 15.3422 11.6273 16.8548 13.4931 16.8548Z" fill="#08D9D6"/>
</svg>
