<svg width="35" height="35" viewBox="0 0 35 35" fill="none" xmlns="http://www.w3.org/2000/svg">
<path fill-rule="evenodd" clip-rule="evenodd" d="M17.5 33.2499C26.1984 33.2499 33.25 26.1983 33.25 17.5C33.25 8.80161 26.1984 1.75 17.5 1.75C8.80163 1.75 1.75 8.80161 1.75 17.5C1.75 26.1983 8.80163 33.2499 17.5 33.2499ZM17.5 34.9999C27.1652 34.9999 35 27.1652 35 17.5C35 7.83474 27.1652 0 17.5 0C7.83475 0 0 7.83474 0 17.5C0 27.1652 7.83475 34.9999 17.5 34.9999Z" fill="#08D9D6"/>
<path d="M7 27.6763C7 26.7724 7.6755 26.0085 8.575 25.9088C15.3256 25.1615 19.705 25.2289 26.4407 25.9254C26.7771 25.9607 27.0959 26.0933 27.3582 26.3068C27.6205 26.5203 27.8149 26.8056 27.9177 27.1278C28.0206 27.45 28.0273 27.7951 27.9372 28.1211C27.8471 28.4471 27.664 28.7398 27.4103 28.9634C19.4609 35.8925 14.9179 35.7972 7.56 28.9704C7.20125 28.6379 7 28.1654 7 27.6772V27.6763Z" fill="#08D9D6"/>
<path fill-rule="evenodd" clip-rule="evenodd" d="M26.3506 26.7951C19.6683 26.1039 15.3519 26.0391 8.67038 26.7785C8.45044 26.8041 8.24769 26.91 8.10093 27.0758C7.95417 27.2416 7.87373 27.4557 7.87501 27.6771C7.87501 27.9274 7.97913 28.1645 8.155 28.329C11.802 31.7117 14.5653 33.2403 17.2664 33.25C19.9771 33.2596 22.8891 31.7432 26.8354 28.3045C26.9607 28.1929 27.051 28.0473 27.0952 27.8854C27.1393 27.7235 27.1355 27.5522 27.0842 27.3924C27.0328 27.2326 26.9362 27.0912 26.8059 26.9853C26.6757 26.8794 26.5175 26.8137 26.3506 26.796V26.7951ZM8.47875 25.039C15.3003 24.2839 19.7435 24.3521 26.5318 25.0547C27.0378 25.1076 27.5174 25.3068 27.9119 25.628C28.3065 25.9492 28.5988 26.3785 28.7531 26.8633C28.9075 27.348 28.9171 27.8673 28.7808 28.3575C28.6446 28.8477 28.3684 29.2875 27.986 29.6231C23.9829 33.1126 20.6491 35.0131 17.2611 35C13.8635 34.9877 10.6768 33.0548 6.96588 29.6117C6.70019 29.3643 6.48839 29.0646 6.34371 28.7316C6.19902 28.3986 6.12457 28.0393 6.12501 27.6762C6.12373 27.0239 6.36318 26.394 6.7975 25.9072C7.23181 25.4204 7.83046 25.1109 8.47875 25.0381V25.039Z" fill="#08D9D6"/>
<path d="M24.5 14C24.5 15.8565 23.7625 17.637 22.4497 18.9497C21.137 20.2625 19.3565 21 17.5 21C15.6435 21 13.863 20.2625 12.5503 18.9497C11.2375 17.637 10.5 15.8565 10.5 14C10.5 12.1435 11.2375 10.363 12.5503 9.05025C13.863 7.7375 15.6435 7 17.5 7C19.3565 7 21.137 7.7375 22.4497 9.05025C23.7625 10.363 24.5 12.1435 24.5 14V14Z" fill="#08D9D6"/>
<path fill-rule="evenodd" clip-rule="evenodd" d="M17.5 19.25C18.8924 19.25 20.2277 18.6969 21.2123 17.7123C22.1969 16.7277 22.75 15.3924 22.75 14C22.75 12.6076 22.1969 11.2722 21.2123 10.2877C20.2277 9.30312 18.8924 8.75 17.5 8.75C16.1076 8.75 14.7723 9.30312 13.7877 10.2877C12.8031 11.2722 12.25 12.6076 12.25 14C12.25 15.3924 12.8031 16.7277 13.7877 17.7123C14.7723 18.6969 16.1076 19.25 17.5 19.25V19.25ZM17.5 21C19.3565 21 21.137 20.2625 22.4497 18.9497C23.7625 17.637 24.5 15.8565 24.5 14C24.5 12.1435 23.7625 10.363 22.4497 9.05025C21.137 7.7375 19.3565 7 17.5 7C15.6435 7 13.863 7.7375 12.5503 9.05025C11.2375 10.363 10.5 12.1435 10.5 14C10.5 15.8565 11.2375 17.637 12.5503 18.9497C13.863 20.2625 15.6435 21 17.5 21V21Z" fill="#08D9D6"/>
</svg>
