<svg width="15" height="15" viewBox="0 0 15 15" fill="none" xmlns="http://www.w3.org/2000/svg">
<path fill-rule="evenodd" clip-rule="evenodd" d="M1.24951 7.50006C1.24951 7.1549 1.52934 6.87505 1.87451 6.87505H13.1245C13.4697 6.87505 13.7495 7.1549 13.7495 7.50006C13.7495 7.84528 13.4697 8.12508 13.1245 8.12508H1.87451C1.52934 8.12508 1.24951 7.84528 1.24951 7.50006Z" fill="#3EBDF2"/>
<path fill-rule="evenodd" clip-rule="evenodd" d="M8.93257 3.30812C9.17658 3.06404 9.57237 3.06404 9.81644 3.30812L13.5664 7.05815C13.8105 7.30216 13.8105 7.69795 13.5664 7.94202L9.81644 11.692C9.57237 11.936 9.17658 11.936 8.93257 11.692C8.68849 11.4479 8.68849 11.0522 8.93257 10.8081L12.2406 7.50006L8.93257 4.192C8.68849 3.94792 8.68849 3.5522 8.93257 3.30812Z" fill="white"/>
</svg>
