<svg width="2063" height="2122" viewBox="0 0 2063 2122" fill="none" xmlns="http://www.w3.org/2000/svg">
<g opacity="0.2">
<path opacity="0.0714286" d="M103.691 1789.04C113.002 1671.96 209.014 1239.1 540.253 1102.6C956.873 930.906 1167.85 428.849 1116.1 218.886" stroke="white"/>
<path opacity="0.142857" d="M102.639 1786.29C121.954 1670.69 254.661 1248.76 596.082 1142.27C1025.51 1008.32 1278.59 527.729 1245.09 314.385" stroke="white"/>
<path opacity="0.214286" d="M101.001 1783.12C130.133 1669.85 298.368 1261.94 647.263 1186.19C1086.09 1090.91 1379.14 635.287 1364.1 420.143" stroke="white"/>
<path opacity="0.285714" d="M98.8163 1779.46C137.507 1669.36 339.842 1278.44 693.454 1233.92C1138.21 1177.92 1468.82 750.575 1472.29 535.222" stroke="white"/>
<path opacity="0.357143" d="M96.1297 1775.28C144.05 1669.15 378.81 1298.06 734.355 1285.01C1181.55 1268.6 1547.02 872.593 1568.92 658.618" stroke="white"/>
<path opacity="0.428571" d="M92.9877 1770.54C149.742 1669.14 415.017 1320.55 769.706 1338.97C1215.82 1362.13 1613.22 1000.29 1653.35 789.267" stroke="white"/>
<path opacity="0.5" d="M89.4422 1765.19C154.572 1669.26 448.234 1345.66 799.291 1395.29C1240.84 1457.72 1666.99 1132.58 1725.01 926.057" stroke="white"/>
<path opacity="0.571429" d="M85.5464 1759.21C158.532 1669.43 478.252 1373.11 822.941 1453.46C1256.48 1554.53 1708.03 1268.35 1783.45 1067.83" stroke="white"/>
<path opacity="0.642857" d="M81.358 1752.56C161.625 1669.58 504.89 1402.61 840.533 1512.95C1262.69 1651.73 1736.1 1406.46 1828.32 1213.41" stroke="white"/>
<path opacity="0.714286" d="M76.9355 1745.22C163.856 1669.62 527.991 1433.85 851.991 1573.21C1259.51 1748.48 1751.09 1545.76 1859.39 1361.58" stroke="white"/>
<path opacity="0.785714" d="M72.3392 1737.18C165.241 1669.49 547.427 1466.53 857.285 1633.71C1247.01 1843.98 1752.97 1685.09 1876.5 1511.12" stroke="white"/>
<path opacity="0.857143" d="M67.6321 1728.43C165.8 1669.1 563.099 1500.3 856.437 1693.9C1225.39 1937.41 1741.83 1823.32 1879.65 1660.8" stroke="white"/>
<path opacity="0.928571" d="M62.8764 1718.95C165.56 1668.4 574.935 1534.84 849.512 1753.26C1194.86 2027.97 1717.84 1959.3 1868.89 1809.39" stroke="white"/>
<path d="M58.1361 1708.74C164.556 1667.3 582.895 1569.81 836.623 1811.24C1155.75 2114.91 1681.29 2091.92 1844.42 1955.71" stroke="white"/>
</g>
</svg>
