<svg width="32" height="31" viewBox="0 0 32 31" fill="none" xmlns="http://www.w3.org/2000/svg">
<path d="M0 2.95238V5.90476H32V2.95238C32 2.16936 31.6935 1.41841 31.1479 0.864732C30.6024 0.311054 29.8624 0 29.0909 0H2.90909C2.13755 0 1.39761 0.311054 0.852053 0.864732C0.306493 1.41841 0 2.16936 0 2.95238V2.95238ZM4.36364 4.42857C4.07595 4.42857 3.79473 4.34199 3.55553 4.17979C3.31634 4.01758 3.1299 3.78703 3.01981 3.51729C2.90972 3.24756 2.88092 2.95074 2.93704 2.66439C2.99316 2.37804 3.1317 2.11501 3.33512 1.90856C3.53854 1.70211 3.79771 1.56151 4.07987 1.50455C4.36202 1.4476 4.65448 1.47683 4.92027 1.58856C5.18605 1.70029 5.41322 1.8895 5.57305 2.13225C5.73287 2.37501 5.81818 2.66042 5.81818 2.95238C5.81818 3.34389 5.66494 3.71937 5.39216 3.99621C5.11938 4.27304 4.74941 4.42857 4.36364 4.42857ZM8.72727 4.42857C8.43959 4.42857 8.15837 4.34199 7.91917 4.17979C7.67997 4.01758 7.49354 3.78703 7.38345 3.51729C7.27336 3.24756 7.24455 2.95074 7.30068 2.66439C7.3568 2.37804 7.49533 2.11501 7.69875 1.90856C7.90218 1.70211 8.16135 1.56151 8.44351 1.50455C8.72566 1.4476 9.01812 1.47683 9.2839 1.58856C9.54969 1.70029 9.77686 1.8895 9.93668 2.13225C10.0965 2.37501 10.1818 2.66042 10.1818 2.95238C10.1807 3.34353 10.0271 3.71833 9.75452 3.99491C9.48199 4.2715 9.11269 4.4274 8.72727 4.42857V4.42857ZM0 7.38095V28.0476C0 28.8306 0.306493 29.5816 0.852053 30.1353C1.39761 30.6889 2.13755 31 2.90909 31H29.0909C29.8624 31 30.6024 30.6889 31.1479 30.1353C31.6935 29.5816 32 28.8306 32 28.0476V7.38095H0ZM11.7818 21.1095L13.6727 23.0286L12.6545 24.0619L11.6364 25.0952L8.72727 22.1429L5.81818 19.1905L8.72727 16.2381L11.6364 13.2857L12.6545 14.319L13.6727 15.3524L11.7818 17.2714L9.89091 19.1905L11.7818 21.1095ZM23.2727 22.1429L20.3636 25.0952L19.3455 24.0619L18.3273 23.0286L20.2182 21.1095L22.1091 19.1905L20.2182 17.2714L18.3273 15.3524L19.3455 14.319L20.3636 13.2857L23.2727 16.2381L26.1818 19.1905L23.2727 22.1429Z" fill="#08D9D6"/>
</svg>
